<svg width="176" height="121" viewBox="0 0 176 121" fill="none" xmlns="http://www.w3.org/2000/svg">
<path fill-rule="evenodd" clip-rule="evenodd" d="M1.62532 47.7487C1.62184 47.8707 1.61822 47.998 1.61329 48.1326C0.55719 48.3001 0.35468 48.4625 0.37467 49.343L0.37589 49.3996C0.384811 49.8238 0.394289 50.2745 0.73544 50.6528C0.901051 50.8361 1.03291 51.0495 1.16495 51.2632C1.29082 51.4669 1.41686 51.6708 1.57245 51.8493C2.21468 52.5849 2.93564 53.2227 3.95731 53.3832C4.28554 53.4346 4.61127 53.5023 4.94868 53.5725L4.9487 53.5725C5.10465 53.6049 5.2631 53.6378 5.42545 53.6699L5.75668 53.4465C5.79663 53.4195 5.83635 53.3922 5.87608 53.3648L5.87611 53.3648L5.87614 53.3648L5.87617 53.3647L5.87619 53.3647L5.87622 53.3647L5.87625 53.3647L5.87628 53.3647L5.8763 53.3646L5.87633 53.3646L5.87636 53.3646L5.87638 53.3646L5.87641 53.3646L5.87644 53.3646L5.87647 53.3645L5.87649 53.3645L5.87652 53.3645L5.87655 53.3645L5.87658 53.3645L5.8766 53.3644L5.87663 53.3644L5.87666 53.3644L5.87668 53.3644L5.87672 53.3644L5.87675 53.3643L5.87679 53.3643L5.87682 53.3643L5.87685 53.3643L5.87689 53.3643L5.87692 53.3642L5.87695 53.3642L5.87699 53.3642L5.87702 53.3642L5.87706 53.3641L5.87709 53.3641L5.87712 53.3641L5.87716 53.3641L5.87719 53.364L5.87723 53.364L5.87726 53.364L5.87729 53.364L5.87733 53.364L5.87736 53.3639L5.87739 53.3639L5.87743 53.3639C5.95707 53.309 6.03674 53.2542 6.1184 53.2025C6.75652 52.7984 6.75839 52.7998 7.51158 53.3787L7.52907 53.3921C7.59956 53.4464 7.68927 53.4869 7.77731 53.5265C7.91051 53.5866 8.03987 53.6449 8.09294 53.7468C8.40717 54.3512 8.92203 54.4166 9.49859 54.4157L9.25505 53.6209L8.98419 52.7369L9.1856 52.6526L10.0942 53.9998C11.0571 53.6281 10.7673 53.0217 10.4969 52.4559C10.4801 52.4207 10.4634 52.3857 10.447 52.351C11.1018 52.2393 11.515 52.015 11.4234 51.3566C11.3498 50.8271 11.6313 50.8862 11.9184 50.9464C11.9578 50.9547 11.9974 50.963 12.0362 50.9698C12.0231 49.8948 11.642 48.8549 10.9568 48.024C10.4507 47.3585 9.99046 46.6585 9.53009 45.9584L9.53007 45.9584L9.53003 45.9583L9.52999 45.9583L9.52994 45.9582L9.5299 45.9581L9.52986 45.9581L9.52982 45.958L9.52977 45.9579L9.52973 45.9579L9.52969 45.9578L9.52965 45.9577L9.5296 45.9577L9.52956 45.9576L9.52952 45.9576L9.52948 45.9575L9.52943 45.9574L9.52939 45.9574L9.52935 45.9573L9.52931 45.9572L9.52926 45.9572L9.52922 45.9571L9.52918 45.9571L9.52914 45.957C9.29242 45.597 9.05568 45.237 8.81266 44.8816C8.66143 44.6808 8.50018 44.4878 8.32954 44.3033L8.20928 44.3924L8.88101 45.6402C8.54451 45.4332 8.26284 45.1476 8.0603 44.8079C7.84271 44.4995 7.60181 44.2081 7.33974 43.9365C7.07294 43.7104 6.79098 43.5031 6.49586 43.3159L6.68099 44.008C5.76219 43.5345 5.76129 43.5355 5.12396 44.2355L5.11892 44.241C5.03154 44.3366 4.88943 44.4869 4.81065 44.4675C4.37793 44.3564 4.25132 44.5319 4.10691 44.9269C4.07308 45.0192 3.9099 45.0499 3.73014 45.0837C3.5644 45.1149 3.38457 45.1487 3.27901 45.236C3.0141 45.4794 2.80637 45.7788 2.67063 46.1127C2.57444 46.3268 2.39074 46.3441 2.21181 46.3609C2.04678 46.3765 1.88582 46.3916 1.80133 46.5604C1.73148 46.6803 1.68432 46.8121 1.66219 46.9494C1.64077 47.2055 1.63345 47.4628 1.62532 47.7487ZM31.9513 43.4849C31.8413 43.6236 31.596 43.6549 31.1141 43.7163C31.1135 43.866 31.0766 44.0115 31.0393 44.1583C30.9599 44.4713 30.8789 44.7905 31.1444 45.1703C31.4853 45.6747 32.0023 46.0333 32.5927 46.1747C32.6597 46.1924 32.7287 46.214 32.7984 46.2359C33.0216 46.3059 33.2518 46.3781 33.4457 46.3286C34.0143 46.1837 34.5412 46.3184 35.0669 46.4528C35.3224 46.5181 35.5775 46.5834 35.8371 46.6164C36.757 46.7342 37.4505 47.3383 37.9782 48.0099C39.2595 49.6402 41.0659 50.3753 42.871 51.1098L43.017 51.1692C43.6016 51.4064 44.148 51.1509 44.7028 50.8914C44.7975 50.8471 44.8925 50.8027 44.988 50.7606L45.0348 50.74C46.0703 50.2833 46.3137 50.176 46.2119 49.2658L46.2004 49.1659C46.1341 48.5942 46.0909 48.2217 46.8925 48.3265C46.9527 48.3353 47.0501 48.1261 47.1256 47.9643C47.1389 47.9357 47.1515 47.9086 47.1631 47.8844C47.1943 47.8194 47.221 47.7264 47.2455 47.6412C47.2785 47.5265 47.3074 47.4259 47.3375 47.4264C48.0716 47.449 47.7938 46.955 47.6547 46.7077L47.6477 46.6952C47.6007 46.6115 47.5539 46.5267 47.5069 46.4414L47.5068 46.4413L47.5067 46.4411C47.1965 45.8785 46.8754 45.2961 46.4113 44.8969C46.2481 44.7567 46.0955 44.5967 45.9421 44.4359L45.942 44.4358L45.942 44.4358L45.9419 44.4357L45.9419 44.4357L45.9419 44.4356L45.9418 44.4356L45.9418 44.4355L45.9417 44.4355L45.9417 44.4354L45.9416 44.4354L45.9416 44.4354L45.9415 44.4353L45.9415 44.4353L45.9414 44.4352L45.9414 44.4352L45.9414 44.4351L45.9413 44.4351L45.9413 44.435L45.9412 44.435L45.9412 44.4349L45.9411 44.4349L45.9411 44.4349L45.941 44.4348L45.941 44.4348C45.5561 44.0312 45.1663 43.6223 44.5919 43.5061C44.2092 43.4626 43.8709 43.2344 43.6859 42.8951C43.5703 42.7549 43.4171 42.6507 43.2447 42.5949C43.1356 42.545 43.0268 42.4946 42.9179 42.4442C42.4457 42.2256 41.9731 42.0068 41.4859 41.8303C41.1585 41.7118 40.8232 41.6161 40.4879 41.5204C40.1451 41.4226 39.8025 41.3247 39.4685 41.2027C38.9967 41.0305 38.5102 40.8997 38.0301 40.7707L38.03 40.7707L38.0292 40.7704C37.934 40.7449 37.8391 40.7194 37.7446 40.6936C37.6362 40.6641 37.5272 40.6323 37.4177 40.6004L37.4176 40.6004C36.6778 40.385 35.9145 40.1627 35.1187 40.5531C34.5367 40.8047 33.9413 41.0245 33.3353 41.2116C33.2494 41.6795 32.9043 41.885 32.5606 42.0897C32.3398 42.2212 32.1197 42.3522 31.9692 42.5522C32.0338 43.0814 32.0655 43.341 31.9513 43.4849ZM174.749 62.5104C174.201 61.3406 173.952 60.1373 174.339 58.9329C174.191 58.7625 174.053 58.6088 173.924 58.4647L173.924 58.4643L173.923 58.4629L173.922 58.4626C173.665 58.1759 173.442 57.9273 173.244 57.6623C172.855 57.1382 172.337 56.6877 171.728 56.9022C171.002 57.1581 170.472 57.1662 169.997 56.5236C169.933 56.4564 169.842 56.4223 169.75 56.431C168.972 56.5734 168.24 56.3838 167.508 56.1942L167.507 56.1942C167.126 56.0953 166.744 55.9965 166.356 55.9448L166.203 55.9241C165.334 55.8056 165.288 55.7992 164.364 56.5221C164.179 56.6674 164.004 56.8269 163.804 57.0102L163.686 57.1184C163.621 57.1768 163.554 57.2376 163.483 57.3011C162.724 57.0951 161.978 56.8414 161.25 56.5412C161.053 56.4487 160.837 56.392 160.621 56.3352C160.165 56.2156 159.708 56.0955 159.42 55.6401C159.023 55.8371 158.642 55.7188 158.295 55.6115C158.07 55.5416 157.86 55.4764 157.67 55.5058L156.609 56.5783L157.063 57.2519C156.838 57.2245 156.707 57.2084 156.647 57.2008L156.393 57.8078C158.453 59.0561 160.626 60.1063 162.882 60.9443C163.235 61.0555 163.488 61.3671 163.526 61.7355C163.177 61.5953 162.835 61.4639 162.499 61.335C161.759 61.0511 161.05 60.7789 160.369 60.4492C159.496 60.0267 158.646 59.5556 157.794 59.0836L157.794 59.0834L157.793 59.083L157.793 59.0827L157.792 59.0823L157.791 59.082C157.424 58.8786 157.057 58.675 156.688 58.4751C156.35 59.3762 156.352 59.3777 156.993 59.7871L157.022 59.8055C158.89 60.9982 160.905 61.9057 162.913 62.8106L162.913 62.8107C163.219 62.9485 163.524 63.0863 163.829 63.225C166.092 64.2533 168.404 65.197 170.914 65.5284C171.404 65.5931 171.871 65.5507 172.337 65.5084L172.337 65.5084C172.549 65.4891 172.761 65.4698 172.974 65.4607C173.239 65.4134 173.462 65.235 173.565 64.9866C173.633 64.6078 173.845 64.3877 174.072 64.1512L174.116 64.1053C174.159 64.0597 174.203 64.013 174.247 63.9642C174.274 63.9334 174.302 63.9021 174.331 63.8703C174.649 63.5187 175.027 63.102 174.749 62.5104ZM140.508 36.9349C140.187 36.8714 139.876 36.8025 139.572 36.7351C138.926 36.592 138.311 36.4556 137.689 36.3919C135.564 36.174 133.761 35.1852 131.957 34.1966C131.533 33.964 131.109 33.7314 130.68 33.5088C129.829 33.0662 129.34 32.274 128.857 31.4909L128.857 31.4898C128.767 31.344 128.677 31.1984 128.585 31.0555C128.516 30.9484 128.546 30.7778 128.576 30.6017C128.591 30.5186 128.606 30.4343 128.61 30.3549L128.639 30.371C129.029 30.5901 129.398 30.7977 129.932 31.0969L128.812 29.4367C128.885 29.3074 128.963 29.1861 129.039 29.0689C129.204 28.8131 129.356 28.5766 129.418 28.3183C129.528 27.9414 129.832 27.6541 130.214 27.567C130.468 27.4755 130.76 27.487 131.065 27.4989C131.201 27.5042 131.339 27.5097 131.478 27.5062C131.881 28.5025 132.714 29.0021 133.649 29.4774C133.759 29.3489 133.911 29.2626 134.066 29.1748C134.342 29.018 134.627 28.8564 134.7 28.4418C134.783 28.2649 134.95 28.1417 135.143 28.1132C135.452 28.098 135.763 28.0601 136.074 28.0222C137.077 27.9 138.082 27.7775 139.033 28.4159L139.097 28.459L139.097 28.4594C139.308 28.6029 139.554 28.7697 139.763 28.75C139.91 28.7363 140.006 28.8322 140.102 28.9275C140.234 29.0593 140.364 29.1898 140.626 29.0276C140.872 28.8748 140.963 29.0568 141.056 29.2421C141.102 29.3349 141.149 29.4286 141.216 29.4813C141.476 29.661 141.723 29.8591 141.955 30.0741C142.14 30.2998 142.307 30.5405 142.452 30.7936C142.108 32.2027 142.113 33.6767 142.466 35.0877L140.508 36.9349ZM78.4006 10.6818L78.3997 10.6842C78.1878 11.2239 77.9793 11.7551 77.7438 12.2736C77.7249 12.3155 77.5886 12.3039 77.4167 12.2892L77.4166 12.2891L77.4163 12.2891C77.3251 12.2813 77.2239 12.2727 77.125 12.2707C77.1645 12.5326 77.1846 12.797 77.1852 13.0616C77.148 13.3513 77.096 13.6387 77.0294 13.9228L77.016 14.0001C76.9199 14.5577 76.8246 15.111 75.9995 14.9227C75.959 14.9135 75.9095 14.9554 75.8575 14.9994C75.8251 15.0268 75.7917 15.055 75.759 15.0722C75.6055 15.1531 75.4624 15.2458 75.3201 15.3381C74.9002 15.6103 74.4874 15.878 73.8324 15.8225C73.5525 15.7989 73.2648 15.8063 72.9737 15.8139C72.5304 15.8253 72.0794 15.837 71.6361 15.7393C70.9374 15.6308 70.2572 15.4227 69.6162 15.1213C68.6261 14.5856 67.6486 14.0551 67.1474 12.9805C67.0465 12.6446 66.9861 12.2979 66.9675 11.948L68.1344 12.0607C68.0668 11.844 67.9759 11.6313 67.8841 11.4163L67.884 11.4161C67.6413 10.8481 67.3918 10.2644 67.5478 9.54868L68.6808 9.60652L68.0832 8.72042C68.3022 8.51058 68.5051 8.29201 68.706 8.07574C69.1481 7.59956 69.58 7.13451 70.1498 6.79836C70.5768 6.52178 71.0897 6.409 71.5948 6.48064C71.804 6.5171 72.0147 6.53524 72.226 6.55342C72.6341 6.58855 73.044 6.62382 73.4477 6.79162C73.7271 6.90831 74.0212 6.98988 74.3181 7.07223C74.6081 7.15265 74.9007 7.23383 75.1851 7.34921C75.7759 7.58956 76.2767 7.95856 76.7767 8.327C77.0761 8.54759 77.3752 8.768 77.6932 8.96047C77.9725 9.12905 78.1535 9.46183 78.3327 9.79123C78.4135 9.9398 78.4939 10.0877 78.5828 10.2195C78.5223 10.3718 78.4627 10.5235 78.4034 10.6746L78.4006 10.6818ZM44.8412 70.5995L43.0813 67.9903L42.8226 68.0871C42.8949 68.3106 42.9493 68.5515 43.0037 68.7924L43.0037 68.7925L43.0037 68.7925C43.1273 69.3395 43.2509 69.8867 43.583 70.2304C43.7218 70.3735 43.8555 70.5257 43.9906 70.6793L43.9906 70.6794C44.4195 71.1673 44.861 71.6696 45.5166 71.9388C45.9032 72.0975 46.2701 72.3104 46.6368 72.5232C47.4866 73.0163 48.3349 73.5085 49.4237 73.3236C49.9648 73.8192 50.58 73.706 51.1707 73.5973C51.3295 73.568 51.4864 73.5392 51.6397 73.5225C52.6312 73.4149 53.667 73.2621 54.1499 72.1244C54.4712 71.3674 54.828 70.6257 55.181 69.8916C55.3353 69.5709 55.4889 69.2516 55.6385 68.9331C55.3539 68.5673 55.0977 68.1802 54.872 67.7754C54.4846 66.9337 53.7088 66.5216 52.9582 66.2751C52.5194 66.1315 52.1414 65.8431 51.886 65.4572C51.4428 65.219 51.0044 65.1887 50.579 65.1594C50.2031 65.1334 49.8375 65.1082 49.4878 64.9409C49.0933 64.818 48.6654 64.8813 48.3252 65.1131C48.1339 65.2583 47.9173 65.3739 47.6998 65.4899L47.6998 65.4899L47.6998 65.4899L47.6997 65.4899L47.6997 65.4899L47.6997 65.49L47.6997 65.49L47.6996 65.49L47.6996 65.49L47.6996 65.49L47.6995 65.4901L47.6995 65.4901L47.6995 65.4901L47.6995 65.4901L47.6994 65.4901L47.6994 65.4902L47.6994 65.4902L47.6993 65.4902L47.6993 65.4902L47.6993 65.4902L47.6993 65.4903C47.2066 65.7532 46.7096 66.0184 46.4913 66.6347C46.4579 66.7288 46.2898 66.7671 46.1089 66.8082L46.1089 66.8082C45.9839 66.8366 45.8528 66.8664 45.7557 66.917C45.6806 66.9561 45.6316 67.0455 45.5667 67.1639C45.5323 67.2268 45.4933 67.2979 45.4436 67.374C45.3144 67.1119 45.1442 66.8721 44.9395 66.6636C44.7391 66.5179 44.3082 66.3828 44.1965 66.4846C43.8811 66.8031 43.6166 67.1686 43.4123 67.5681C43.2474 67.8577 43.4174 68.0711 43.5826 68.2784C43.6316 68.3399 43.6802 68.4009 43.7195 68.4632C43.7975 68.5872 43.8777 68.7098 43.9579 68.8325L43.958 68.8326C44.3159 69.3799 44.6746 69.9283 44.8412 70.5995ZM75.3411 65.3754L72.5626 64.8264C72.2341 64.3911 71.9361 63.9337 71.6706 63.4575C71.5764 63.2669 71.7078 62.9243 71.8248 62.6961C71.8556 62.6359 72.0064 62.6378 72.1568 62.6396C72.2223 62.6404 72.2878 62.6412 72.3432 62.6368C72.3344 62.5687 72.3224 62.4989 72.3102 62.4286C72.2388 62.0163 72.1639 61.5845 72.7375 61.3415C72.8732 61.2967 72.9872 61.2028 73.0571 61.078C73.1911 60.6381 73.3468 60.1752 73.7964 60.0262C73.9498 59.9753 74.1041 59.9196 74.2591 59.8636C74.9186 59.6256 75.5927 59.3823 76.2773 59.4747C77.9493 59.7008 79.6237 60.0425 81.0501 61.0357C81.913 61.6145 82.7188 62.2752 83.456 63.0084C83.8407 63.3949 83.9716 63.9668 83.793 64.4798C83.654 64.8449 83.5228 65.2132 83.3916 65.5814L83.3915 65.5815L83.3914 65.5818L83.3914 65.5819L83.3913 65.5822L83.3912 65.5823L83.3911 65.5826L83.3911 65.5827L83.391 65.583L83.3909 65.5831L83.3908 65.5834L83.3908 65.5835L83.3907 65.5838L83.3907 65.5839L83.3905 65.5842L83.3905 65.5843L83.3904 65.5846L83.3904 65.5847L83.3903 65.585L83.3902 65.5851C83.1816 66.1706 82.973 66.756 82.7332 67.3281C82.5928 67.6661 82.351 67.9515 82.0411 68.1449C80.1816 69.1766 78.3692 69.1893 76.5042 67.5432C76.4154 67.4648 76.3143 67.3927 76.2135 67.3209C76.006 67.1729 75.7994 67.0257 75.7023 66.8249C75.5299 66.356 75.4087 65.87 75.3411 65.3754ZM107.351 106.642L107.988 107.277C107.897 106.774 107.738 106.401 107.195 106.219C106.848 106.103 106.536 105.911 106.222 105.717L106.222 105.717C105.798 105.456 105.37 105.192 104.846 105.108C104.518 105.082 104.194 105.017 103.881 104.915C102.057 104.069 100.197 104.151 98.3084 104.489L98.2649 104.497L98.2343 104.502C98.0164 104.539 97.7252 104.589 97.692 104.698C97.5865 105.051 97.3451 105.107 97.0892 105.167C97.028 105.181 96.966 105.196 96.9049 105.215C96.7275 105.269 96.4688 105.397 96.4397 105.534C96.3413 105.997 96.0915 106.363 95.8398 106.731L95.8397 106.732C95.7854 106.811 95.7309 106.891 95.6779 106.972C95.612 107.072 95.4977 107.275 95.8066 107.385C95.9582 107.439 96.0795 107.579 96.2178 107.738C96.2849 107.816 96.356 107.898 96.4365 107.977C95.6447 108.079 95.0671 108.278 95.0637 108.999C95.2331 109.117 95.3928 109.244 95.5489 109.369L95.549 109.369L95.549 109.369L95.5491 109.369L95.5491 109.369L95.5492 109.369L95.5493 109.369L95.5493 109.369L95.5494 109.369L95.5494 109.369L95.5495 109.369L95.5495 109.369L95.5496 109.369L95.5497 109.369L95.5497 109.369L95.5498 109.369L95.5498 109.369L95.5499 109.369L95.5499 109.37C95.8838 109.635 96.2012 109.888 96.5617 110.016C96.9088 110.139 97.2418 110.307 97.575 110.476C98.2875 110.836 99.0011 111.197 99.8554 111.115C101.422 111.925 103.077 111.817 104.737 111.709L104.738 111.709L104.739 111.709C104.878 111.7 105.018 111.691 105.158 111.682C105.718 111.706 106.228 111.365 106.418 110.837C106.422 110.827 106.426 110.818 106.43 110.808L106.438 110.788L106.447 110.764C106.529 110.553 106.628 110.297 107.049 110.359C107.221 110.347 107.379 110.258 107.478 110.117C107.577 109.976 107.609 109.798 107.564 109.631C107.418 109.206 107.483 108.767 107.548 108.327C107.633 107.759 107.717 107.188 107.351 106.642ZM143.104 1.09878L142.734 0.336129C142.781 0.33757 142.822 0.3352 142.859 0.333098C142.927 0.329236 142.98 0.326275 143.014 0.34949C143.238 0.500008 143.467 0.644382 143.695 0.788734L143.695 0.789004C144.306 1.17544 144.917 1.5618 145.449 2.0659L145.526 2.13802C145.961 2.54635 146.374 2.935 146.163 3.62684C146.105 3.81693 146.195 4.01479 146.286 4.21272C146.432 4.53343 146.579 4.85429 146.093 5.14239C146.125 5.93795 145.546 6.26927 144.986 6.59015L144.943 6.61496C145.099 7.05228 145.226 7.49958 145.321 7.95377C145.395 8.45321 144.887 8.95063 144.146 9.19117C144.077 9.21338 143.998 9.21898 143.921 9.22449C143.807 9.23252 143.697 9.24035 143.624 9.29912L143.599 9.31976C142.679 10.0654 142.677 10.067 141.724 9.55919C141.231 9.32973 140.751 9.07268 140.287 8.78926C139.789 8.42513 139.16 8.2946 138.562 8.43156C137.618 8.61648 136.644 8.29791 135.986 7.58965C135.388 6.95793 135.279 6.08183 135.564 5.14274L136.072 5.3148L136.086 5.31959L136.184 5.35304L136.22 5.36505L136.229 5.36825L136.235 5.37017L136.259 5.37849C136.643 5.50859 137.061 5.6502 137.567 5.82185C137.442 5.63555 137.329 5.46903 137.224 5.31571L137.221 5.31137L137.218 5.3072L137.216 5.30319L137.213 5.29935L137.211 5.29566C136.992 4.97432 136.812 4.7105 136.64 4.44238C136.434 4.12291 136.454 4.0929 136.688 3.73995C136.748 3.65023 136.822 3.53964 136.909 3.39812C137.013 3.2293 137.175 3.09597 137.336 2.96261C137.65 2.70346 137.964 2.44422 137.857 1.92415L139.131 0.992293C139.914 0.417201 140.688 0.0237259 141.671 0.671115C141.938 0.847954 142.274 0.916936 142.623 0.988278C142.783 1.02105 142.945 1.05432 143.104 1.09878ZM25.5644 86.8166C26.1441 87.5175 27.1177 87.746 27.9421 87.3747L27.6739 86.0652C28.3179 86.5815 28.9342 86.8833 29.7504 86.4537C29.7047 86.1459 29.6746 85.8361 29.6603 85.5254C29.6599 85.4438 29.6808 85.3567 29.7016 85.2703C29.7603 85.027 29.8173 84.7902 29.389 84.704L30.1484 84.2713C30.0672 83.7798 29.9591 83.1228 29.858 82.5071C29.9467 82.4752 30.0338 82.4443 30.1195 82.4139L30.1196 82.4139L30.1202 82.4137C30.3919 82.3173 30.65 82.2258 30.9018 82.1196C30.947 82.1022 30.98 81.9217 30.9431 81.874C30.8628 81.771 30.7104 81.6204 30.6302 81.6426C30.5497 81.6648 30.4737 81.7246 30.4002 81.7825C30.3116 81.8523 30.2266 81.9192 30.1418 81.9139C30.0464 81.9086 29.9558 81.8095 29.8323 81.6744C29.768 81.6041 29.6948 81.5241 29.6074 81.4425L30.3846 81.548C30.1961 81.2687 30.0111 80.994 29.8285 80.723L29.8284 80.7228L29.8282 80.7225C29.1581 79.7276 28.5218 78.7831 27.8771 77.8446C27.8382 77.7881 27.7658 77.757 27.6917 77.7253C27.6342 77.7006 27.5757 77.6756 27.5314 77.6379C27.2862 77.4295 27.0021 77.2655 26.7235 77.1047C26.1741 76.7876 25.6462 76.4829 25.4814 75.8752C24.8157 75.3928 24.3277 75.6685 23.8689 75.9277C23.5679 76.0977 23.2795 76.2606 22.9619 76.1979C22.8624 76.3825 22.779 76.5788 22.6976 76.7701C22.5226 77.1818 22.3573 77.5705 22.0636 77.7711C21.7416 77.9911 21.6189 78.3172 21.4985 78.6371C21.3758 78.9631 21.2555 79.2826 20.9292 79.4763C20.8455 79.5259 20.835 79.8788 20.9211 80.0022C21.0758 80.2242 21.1417 80.474 21.2084 80.7267C21.2828 81.0087 21.3582 81.2942 21.5588 81.5488C22.3469 82.5448 23.0595 83.5984 23.6906 84.7006C24.0241 85.287 24.4903 85.7428 24.9533 86.1954C25.1618 86.3992 25.3696 86.6024 25.5644 86.8166ZM154.329 83.4681L154.329 83.4683L154.328 83.4685C153.79 83.7818 153.307 84.0631 153.449 84.8255C152.483 84.4929 152.098 84.0531 152.255 83.1649C152.295 82.939 152.31 82.7117 152.325 82.4834C152.35 82.0921 152.376 81.6975 152.529 81.3001C152.651 80.9817 152.611 80.6071 152.572 80.2265C152.543 79.9479 152.513 79.6661 152.546 79.4008C152.588 79.0668 152.731 78.7459 152.873 78.4251C152.937 78.282 153.001 78.1389 153.055 77.9946L153.723 78.1199L153.429 78.9084L153.59 79.0119L154.359 78.2948C154.405 78.3139 154.461 78.3468 154.525 78.3839C154.693 78.4821 154.912 78.6098 155.114 78.5875C156.782 78.4014 158.295 78.9487 159.79 79.55C160.081 79.667 160.341 79.8594 160.601 80.0526L160.601 80.0527C160.781 80.1855 160.96 80.3187 161.151 80.4279L161.337 80.5343C162.337 81.1057 162.584 81.2465 163.019 82.193C163.352 82.9173 163.702 83.6924 163.551 84.568C163.467 84.9249 163.502 85.3005 163.652 85.6366C164.082 86.332 163.785 86.6902 163.218 87.0219C163.057 87.1184 162.913 87.2402 162.791 87.3827C162.015 88.28 161.899 88.3196 160.932 87.9066C159.739 87.3978 158.728 86.6102 157.718 85.824L157.718 85.8239C157.515 85.6658 157.312 85.5077 157.108 85.352C156.509 84.8962 155.936 84.4068 155.371 83.9238L155.37 83.9232C155.121 83.7101 154.873 83.4983 154.624 83.2911C154.527 83.3532 154.427 83.4112 154.329 83.4681ZM129.831 80.3502C129.973 80.3383 130.115 80.3265 130.257 80.3159C130.112 79.803 130.16 79.2759 130.652 79.292C131.355 79.3171 131.207 78.9344 131.079 78.621C131.055 78.56 131.024 78.4993 130.993 78.439C130.887 78.2311 130.783 78.0275 130.939 77.8286C131.181 77.5186 131.171 77.1758 131.162 76.8375C131.157 76.6918 131.153 76.5469 131.169 76.4058C131.212 76.0262 131.139 75.4814 130.893 75.2531C130.455 74.8822 129.941 74.6123 129.388 74.4626C129.066 74.3645 128.723 74.3385 128.379 74.3124C128.153 74.2952 127.926 74.2779 127.705 74.2402C127.424 74.1924 127.143 74.1344 126.863 74.0763C126.068 73.9116 125.273 73.7467 124.452 73.8175C124.091 73.8488 123.727 73.8365 123.363 73.8243L123.363 73.8243C122.678 73.8012 121.994 73.7781 121.336 74.0437C120.709 74.3498 119.999 74.4422 119.313 74.3067C118.55 74.1312 118.261 74.4325 117.941 75.2681C117.902 75.3686 117.847 75.4811 117.791 75.5945C117.659 75.861 117.524 76.132 117.607 76.2608C117.823 76.5956 117.633 76.7285 117.444 76.8609C117.27 76.9827 117.097 77.1041 117.24 77.382C118.599 78.2417 120.203 78.6824 121.799 79.1207C121.981 79.1709 122.164 79.221 122.346 79.2717C123.479 79.5874 124.641 79.796 125.804 80.0046L125.804 80.0046C126.37 80.1062 126.936 80.2078 127.499 80.3218C128.28 80.4797 129.049 80.4155 129.831 80.3502ZM169.863 39.5505L169.863 39.5504L169.814 39.5264C168.679 38.9727 167.585 38.3394 166.538 37.6313C166.312 37.4764 166.074 37.3331 165.835 37.189C164.975 36.6717 164.098 36.1435 163.688 35.0319C164.359 35.044 164.875 35.383 165.41 35.7344C165.898 36.0543 166.4 36.3845 167.05 36.4875C166.492 35.8473 165.84 35.4014 165.163 34.938C164.642 34.5822 164.107 34.2162 163.588 33.7441L164.677 33.647C164.572 33.4098 164.461 33.1612 164.351 32.9135L165.352 31.9198C165.419 31.9501 165.494 31.9857 165.576 32.0241L165.576 32.0242L165.577 32.0248C165.778 32.1194 166.014 32.2308 166.257 32.3225C167.581 32.8215 167.593 32.8185 169.098 32.4343L169.135 32.4248C169.311 32.3869 169.491 32.3685 169.672 32.3698C171.047 32.3325 172.388 32.431 173.635 33.1373C174.205 33.4473 174.71 33.8651 175.121 34.3676C175.213 34.4695 175.335 34.5383 175.47 34.5634C175.593 34.5786 175.7 34.6579 175.751 34.7721C175.801 34.8863 175.788 35.0184 175.716 35.1199C175.531 35.493 175.502 35.8935 175.472 36.2934C175.448 36.6167 175.424 36.9396 175.318 37.2472C175.245 37.522 175.294 37.8156 175.454 38.0524C175.637 38.4348 175.263 39.3425 174.898 39.4825C174.823 39.5113 174.731 39.4998 174.64 39.4882C174.457 39.4652 174.273 39.4421 174.216 39.739C174.184 39.9794 174.168 40.2216 174.168 40.4642C172.429 40.8181 171.132 40.1773 169.863 39.5505ZM115.261 39.1433L115.916 38.5232C115.893 38.1532 115.651 37.9345 115.408 37.7145C115.188 37.5155 114.967 37.3155 114.906 37.0016C114.833 36.8584 114.673 36.7833 114.517 36.8205C114.362 36.8577 114.254 36.9973 114.255 37.1575C114.244 37.216 114.112 37.2506 113.979 37.2853C113.918 37.3012 113.857 37.3171 113.808 37.3354C113.795 37.2942 113.775 37.2439 113.755 37.1935C113.713 37.0857 113.67 36.9778 113.694 36.9603C114.319 36.5011 113.765 36.0917 113.523 35.9215C113.32 35.7787 113.119 35.6319 112.917 35.4849C112.096 34.8852 111.27 34.2824 110.306 33.9336L110.293 33.929C109.793 33.7479 109.156 33.5174 108.909 34.3579C108.895 34.4006 108.789 34.4415 108.725 34.4425C108.022 34.4532 107.85 34.8448 107.973 35.4664C108.081 36.0091 107.76 35.9442 107.51 35.8934L107.466 35.8847L107.16 36.8622L108.132 37.716C107.952 37.7286 107.791 37.6694 107.634 37.6113C107.366 37.5121 107.106 37.4164 106.772 37.6897L106.785 37.8727L106.785 37.8731L106.785 37.8741L106.785 37.8752L106.785 37.8756L106.785 37.8765C106.798 38.0551 106.812 38.2542 106.824 38.4534C106.829 38.5501 106.848 38.6595 106.866 38.7689C106.907 39.0111 106.948 39.2537 106.846 39.3603C106.424 39.8014 106.719 39.991 106.986 40.1622C107.021 40.1845 107.055 40.2065 107.087 40.2287C107.457 40.4845 107.839 40.7226 108.221 40.9607C108.489 41.1281 108.758 41.2956 109.022 41.4692C109.17 41.5882 109.306 41.7218 109.427 41.8681L109.274 42.0636C108.361 41.501 107.449 40.9382 106.424 40.3061C106.75 41.1676 107.309 41.5235 107.923 41.9051C108.897 42.5052 109.943 42.9774 111.035 43.3098C112.418 43.7352 113.843 43.9005 115.028 42.7338C115.132 42.6472 115.243 42.5707 115.361 42.5051L115.935 39.5009L115.261 39.1433ZM94.0366 15.5256L94.8754 15.6916L94.6812 15.3172C94.5686 15.1001 94.463 14.8964 94.3513 14.6814C94.478 14.5507 94.6044 14.4167 94.7318 14.2815C95.0335 13.9616 95.3408 13.6358 95.6705 13.3343C95.9574 13.0728 96.2818 12.8556 96.6329 12.6899C96.7443 12.6375 96.829 12.709 96.9251 12.7899C97.0574 12.9015 97.2111 13.031 97.4851 12.8795C97.7379 12.739 98.1618 12.9511 98.5481 13.1443L98.5485 13.1445L98.549 13.1447L98.5503 13.1454C98.6296 13.185 98.7073 13.2239 98.7816 13.2587C98.8958 13.3122 98.9895 13.4283 99.0843 13.5458C99.2844 13.7937 99.4894 14.0477 99.9023 13.7335L100.767 14.8737C100.786 14.8991 100.809 14.9223 100.831 14.9456L100.85 14.9656L100.86 14.9769L103.876 15.5724C104.063 15.4261 104.262 15.295 104.47 15.1803C104.802 15.0262 105.327 15.1073 105.298 15.3967C105.264 15.7411 105.48 15.8642 105.685 15.9811C105.863 16.0825 106.032 16.1794 106.024 16.4119C105.279 17.3245 105.006 17.5541 104.155 17.9331C104.625 18.2192 105.035 18.4685 105.549 18.7817C105.537 18.841 105.531 18.9174 105.524 18.9983C105.509 19.1896 105.493 19.4059 105.381 19.4799C105.168 19.6212 104.961 19.7759 104.754 19.9308L104.753 19.9309C103.985 20.5045 103.213 21.0813 102.136 20.9927C101.764 21.0016 101.392 20.9698 101.026 20.8979C100.351 20.6841 99.6908 20.422 99.0312 20.1602L98.8203 20.0766L98.6955 20.0272C98.4749 19.9402 98.2595 19.8402 98.044 19.7402C97.8874 19.6674 97.7307 19.5947 97.572 19.527C97.3513 19.4325 97.1647 19.2746 96.9782 19.1167C96.6716 18.8572 96.3651 18.5978 95.9069 18.6204C95.6909 18.1697 95.3042 17.945 94.9088 17.7152L94.9086 17.7151C94.7874 17.6447 94.6654 17.5738 94.5473 17.4958C94.2123 17.3074 93.9681 16.9902 93.8716 16.6179C93.7751 16.2457 93.8347 15.8509 94.0366 15.5256ZM45.6953 21.9055L44.5796 22.658C43.7962 23.0696 43.1187 23.6566 42.5993 24.3738C42.3759 24.6791 42.2409 25.0365 42.1049 25.3966C41.9666 25.7626 41.8273 26.1315 41.5929 26.4515C41.5398 26.5236 41.5986 26.738 41.6731 26.833C41.9006 27.1281 42.1488 27.4067 42.4158 27.6666C42.9178 28.1482 43.5459 28.3723 44.1759 28.5971C44.3653 28.6647 44.5548 28.7323 44.7411 28.807C46.3313 29.4436 47.8794 29.6814 49.385 28.623C49.4925 28.5368 49.628 28.4932 49.7659 28.5004C50.271 28.6185 50.4103 28.3159 50.549 28.0147C50.6249 27.8501 50.7005 27.6858 50.8356 27.5909C50.8122 26.8563 51.1538 26.2404 51.4869 25.6399C51.605 25.427 51.722 25.216 51.8213 25.0023C52.1592 24.2753 52.0774 23.8049 51.617 23.3833C51.5256 23.2995 51.4346 23.214 51.3434 23.1283C50.6293 22.4572 49.9005 21.7723 48.8019 21.765C48.6547 21.7636 48.5069 21.7213 48.3587 21.679C48.0484 21.5903 47.7366 21.5012 47.4255 21.786C47.3145 21.8491 47.1786 21.8498 47.0662 21.7881C46.5932 21.2803 46.2057 21.5505 45.8161 21.8222C45.7759 21.8502 45.7356 21.8783 45.6953 21.9055ZM82.4289 82.9514C82.7945 83.1121 83.0632 83.2302 83.5854 83.4595C83.4971 83.2815 83.4316 83.1486 83.3798 83.0434L83.3795 83.0428L83.3793 83.0423C83.2969 82.8749 83.2492 82.7781 83.1989 82.6821L83.1979 82.6803C83.0735 82.4435 83.0063 82.3155 83.0243 82.2009C83.0455 82.066 83.1849 81.9497 83.4884 81.6966L83.4899 81.6953C83.5079 81.6803 83.5293 81.6646 83.5512 81.6486C83.6153 81.6019 83.6833 81.5522 83.6819 81.5066C83.6403 80.9514 83.9988 80.4474 84.5353 80.307C85.1275 80.09 85.7573 79.9927 86.3886 80.0207C88.7425 80.2804 90.7713 81.3885 92.6734 82.733C92.8956 82.89 93.0423 83.1544 93.188 83.4172C93.255 83.5381 93.3218 83.6586 93.3957 83.7681L92.8997 84.0279C93.224 84.4436 93.3439 84.8324 92.9069 85.2778C92.7669 85.4697 92.7309 85.719 92.8109 85.944C92.9911 86.2768 92.8136 86.449 92.6394 86.6179C92.5207 86.7331 92.4036 86.8467 92.4024 87.0086C92.0705 86.8608 91.8804 87.0559 91.6892 87.2522C91.5224 87.4234 91.3547 87.5956 91.0912 87.5424C90.901 87.5038 90.7025 87.4842 90.5047 87.4647L90.5045 87.4646C90.1374 87.4283 89.7724 87.3923 89.466 87.2358C88.4103 86.7292 87.4117 86.1102 86.4874 85.3895C86.1145 85.0366 85.6158 84.8492 85.105 84.87C84.3117 84.9435 83.514 84.7634 82.8263 84.3556L82.803 84.3413C82.2346 83.9942 82.2305 83.9917 82.4289 82.9514ZM95.2533 53.0834C95.3291 53.2439 95.4254 53.3939 95.5399 53.5296C95.9858 53.6992 96.4295 53.8135 96.8644 53.9254C97.0711 53.9786 97.2758 54.0313 97.4778 54.0892C98.7288 54.4523 100.015 54.8227 101.395 54.5325C102.316 54.3384 102.927 53.799 102.963 53.0362C102.974 52.8177 103.058 52.6072 103.142 52.3976C103.293 52.0227 103.442 51.6508 103.164 51.2419C103.761 50.7018 103.278 50.2276 102.941 49.9485C101.999 49.1676 101.02 48.3954 99.8006 48.0845C99.576 48.0273 99.3407 48.0152 99.1052 48.0032L99.1051 48.0032C98.8873 47.9921 98.6693 47.9809 98.4595 47.9339C98.1125 47.8564 97.7744 47.7381 97.4094 47.6103L97.4093 47.6102C97.2437 47.5522 97.0726 47.4923 96.8925 47.4334L95.3491 48.9764L95.4407 49.1752L95.5019 49.3081L95.503 49.3105C95.5807 49.4795 95.6595 49.6509 95.7556 49.8583L93.669 49.6618C93.6358 49.8128 93.6164 49.9743 93.5981 50.1265C93.5608 50.4363 93.5281 50.7078 93.3935 50.7743C93.1752 50.8825 93.0472 51.0509 92.9191 51.2193C92.7935 51.3845 92.6678 51.5498 92.4568 51.6584C92.6576 51.7281 92.8462 51.637 93.028 51.5492C93.3098 51.4132 93.5752 51.2851 93.8445 51.7749L93.1156 51.9116C93.3131 52.6144 93.8405 52.5851 94.3884 52.5546L94.3888 52.5546C94.4426 52.5516 94.4966 52.5486 94.5505 52.5462C94.3453 52.3758 94.1412 52.2042 93.8879 51.9917C94.026 51.9205 94.1753 51.8733 94.3294 51.8522C94.5169 51.8635 94.6987 51.9229 94.8573 52.0246C94.8983 52.0542 94.9024 52.1285 94.9068 52.2074C94.9107 52.2795 94.9149 52.3554 94.9478 52.4042C94.9853 52.4586 95.0514 52.4959 95.1162 52.5324C95.1877 52.5728 95.2577 52.6123 95.2864 52.6731C95.3124 52.7277 95.2923 52.803 95.2719 52.8791C95.2523 52.9523 95.2325 53.0263 95.2533 53.0834ZM126.094 55.8657L126.831 55.6671C126.482 55.098 125.958 54.9599 125.427 54.8198C124.975 54.7008 124.519 54.5804 124.16 54.1929C124.378 54.1314 124.603 54.0947 124.829 54.0833C125.178 54.1305 125.524 54.1956 125.865 54.2785C125.593 53.9262 125.205 53.6818 124.77 53.589C124.834 52.915 124.862 52.619 125.006 52.3993C125.119 52.2272 125.304 52.102 125.633 51.8788C125.854 51.9362 126.078 52.0111 126.304 52.0866L126.305 52.0866C126.825 52.2601 127.355 52.437 127.876 52.4148C128.379 52.3936 128.792 52.5692 129.203 52.7436C129.467 52.8557 129.729 52.9674 130.014 53.0258C130.717 53.2198 131.387 53.518 132.003 53.9104C132.373 54.0926 132.682 54.3798 132.892 54.7362C133.093 55.1689 133.315 55.8554 133.116 56.152C132.886 56.4925 132.972 56.7186 133.059 56.9507C133.097 57.0514 133.136 57.1532 133.149 57.266C133.209 57.7751 133.19 58.3226 132.755 58.7337C132.663 58.8209 132.579 58.9355 132.496 59.0484L132.496 59.0485C132.351 59.2467 132.21 59.4395 132.036 59.469C131.364 59.6077 130.671 59.6154 129.995 59.4915C128.768 59.1916 127.562 58.8129 126.383 58.3579C126.186 58.2848 126.04 58.0747 125.868 57.8274L125.867 57.8274L125.867 57.8272C125.78 57.7016 125.685 57.5664 125.575 57.4347L126.278 57.4967C125.94 57.1247 126.002 56.7453 126.06 56.3872C126.089 56.2067 126.118 56.0317 126.094 55.8657ZM148.938 104.83L149.823 104.751C149.48 104.387 149.113 104.047 148.725 103.732C148.553 103.614 148.175 103.54 148.062 103.64C147.814 103.859 147.547 103.818 147.298 103.78C147.137 103.756 146.984 103.733 146.849 103.781C146.506 103.906 146.219 103.837 145.932 103.768C145.821 103.741 145.709 103.714 145.595 103.699C145.363 103.668 145.129 103.606 144.896 103.544C144.502 103.439 144.111 103.334 143.741 103.387C143.371 103.439 143.037 103.375 142.707 103.313C142.493 103.273 142.282 103.233 142.063 103.224C141.678 103.21 141.293 103.202 140.908 103.195L140.908 103.194L140.908 103.194L140.908 103.194L140.907 103.194L140.906 103.194L140.905 103.194L140.706 103.19C140.603 103.188 140.5 103.186 140.397 103.184L139.088 104.067C139.515 104.42 139.286 104.575 139.055 104.732C138.874 104.854 138.692 104.977 138.822 105.197C138.92 105.373 139.118 105.399 139.317 105.426C139.594 105.463 139.874 105.501 139.898 105.943C139.796 105.931 139.692 105.91 139.589 105.889C139.181 105.807 138.786 105.727 138.567 106.211C139.074 106.891 139.814 107.018 140.555 107.144L140.661 107.162C140.806 107.178 140.95 107.208 141.09 107.249C142.594 107.81 144.136 108.258 145.705 108.59C145.889 108.627 146.063 108.709 146.237 108.791C146.399 108.867 146.561 108.942 146.73 108.983L146.801 109C147.425 109.152 148.071 109.309 148.633 108.803C148.491 108.522 148.227 108.411 147.968 108.303C147.656 108.173 147.352 108.046 147.276 107.625L149.33 108.031L149.719 107.225L148.258 106.282C149.3 106.098 149.331 106.002 148.938 104.83ZM86.6595 29.0203C86.8083 28.9339 86.9227 28.8289 87.0315 28.729C87.2405 28.5372 87.429 28.3643 87.8015 28.3774L87.4289 28.8738C87.5565 28.9796 87.6853 29.0846 87.814 29.1895L87.8143 29.1897L87.8145 29.1899L87.8147 29.1901L87.815 29.1903C88.1616 29.4728 88.5086 29.7556 88.8356 30.0577C88.9511 30.1642 89.0538 30.4586 88.9908 30.5552C88.7881 30.8675 88.7753 31.2107 88.7626 31.5504C88.7536 31.7908 88.7447 32.0294 88.6686 32.2541C88.5558 32.5015 88.382 32.7158 88.1635 32.8769C88.1128 32.92 88.0267 32.9215 87.9409 32.923C87.8555 32.9245 87.7703 32.926 87.7201 32.9683C87.6069 33.1111 87.5209 33.2737 87.4664 33.4479L87.4157 33.4048C86.7609 32.8485 86.7271 32.8198 85.7464 33.0836C85.3728 33.1844 85.0663 33.0624 84.7555 32.9386C84.5658 32.8631 84.3746 32.787 84.1656 32.7605L84.2337 33.1916L84.271 33.4273C84.2035 33.4122 84.128 33.4042 84.0542 33.3964C83.9003 33.3802 83.7535 33.3647 83.701 33.2862C82.7304 31.8332 82.7069 31.8011 81.464 31.3767C81.506 31.9214 81.8724 32.1021 82.2603 32.2934C82.5173 32.4201 82.7837 32.5515 82.9714 32.7965C82.908 32.8262 82.8389 32.8673 82.7716 32.9072C82.6325 32.9897 82.5015 33.0675 82.4464 33.0305C82.3253 32.9495 82.2013 32.8719 82.0775 32.7944C81.3645 32.3481 80.6576 31.9055 80.5471 30.8565C80.5421 30.8082 80.5365 30.7634 80.5313 30.7215C80.4953 30.4309 80.4764 30.2789 80.767 30.0759C80.9718 29.8994 81.1272 29.6724 81.2179 29.4171C81.4113 28.9732 81.5867 28.5216 81.7703 28.049L81.7704 28.0489L81.7707 28.0481C81.8465 27.8529 81.9237 27.6542 82.0041 27.4509L82.4044 27.6165C82.6556 27.6209 82.7842 27.4368 82.8943 27.2792C83.045 27.0635 83.1611 26.8972 83.5098 27.3301C83.5759 27.4121 83.6372 27.3323 83.7102 27.2371C83.8267 27.0852 83.9733 26.8941 84.2181 27.257C84.3249 27.4154 84.6321 27.4387 84.9277 27.4611L84.9278 27.4612L84.9279 27.4612C85.0588 27.4711 85.1874 27.4809 85.2953 27.5021C85.3272 27.6386 85.3581 27.7717 85.3886 27.9032L85.4615 28.2165C85.549 28.2182 85.6364 28.2197 85.7239 28.221L85.6874 27.8952L85.6246 27.3348C85.9557 27.4939 86.1875 27.6051 86.4211 27.7172L86.713 27.8573C86.6969 28.2158 86.6783 28.6182 86.6595 29.0203ZM69.1563 92.3021L70.5366 92.7441C70.6139 92.5527 70.6691 92.353 70.7014 92.1488C70.6752 91.9711 70.6387 91.795 70.592 91.6215L70.5876 91.5935L70.5876 91.5934C70.5617 91.4288 70.5205 91.167 70.5613 91.1518C70.8848 91.0321 70.9618 90.7352 71.0386 90.439C71.121 90.1215 71.2031 89.805 71.5884 89.7085C71.5679 89.5866 71.5411 89.4659 71.5078 89.3468C71.1913 89.3953 71.1187 89.1903 71.0469 88.9876C71.0092 88.8811 70.9717 88.7752 70.8991 88.707C70.5866 88.4132 70.2156 88.2606 69.8489 88.1098C69.5895 88.0031 69.3323 87.8974 69.0994 87.7431C68.0959 87.0698 66.9524 86.6363 65.7577 86.4764L63.5227 88.4921L64.3213 89.676C64.0869 89.7357 63.8547 89.6746 63.6296 89.6154C63.3064 89.5304 62.9977 89.4491 62.7179 89.7343C63.0238 90.5007 63.4813 91.1319 64.1952 91.3988C64.7859 91.6197 65.3549 91.8874 65.9231 92.1548C66.4712 92.4128 67.0186 92.6704 67.5844 92.8854C68.1164 93.1186 68.6998 93.2066 69.275 93.1403L69.1563 92.3021ZM107.225 89.3961L108.454 90.1862L108.278 89.4437C108.287 89.4433 108.296 89.4426 108.305 89.4415C108.322 89.4396 108.339 89.4368 108.357 89.4339C108.415 89.4246 108.472 89.4155 108.5 89.4395C108.88 89.7787 109.342 90.0136 109.839 90.1211C110.149 90.2062 110.445 90.3335 110.721 90.4995C111.188 90.7904 111.767 90.8295 112.266 90.6039C112.237 90.3935 112.207 90.1765 112.193 90.0758L113.192 90.1275C113.232 90.1873 113.266 90.232 113.292 90.2657C113.331 90.3174 113.35 90.3432 113.344 90.358C113.247 90.5878 113.144 90.8146 113.046 91.0298L112.97 91.1984C113.252 91.4904 113.509 91.7556 113.893 92.1523L112.768 92.3085L112.865 93.0204L112.947 93.6251L112.408 94.0867L112.772 94.6271C112.474 95.4942 111.935 95.7679 111.083 95.64C110.731 95.5871 110.376 95.553 110.017 95.5185L110.016 95.5185C109.428 95.462 108.826 95.4042 108.201 95.2608L108.611 94.2644C108.135 93.8615 107.579 93.564 106.98 93.3914C106.539 93.2547 106.131 93.0049 105.731 92.7593L105.73 92.7592C105.557 92.6526 105.384 92.5468 105.21 92.4514C105.256 91.9152 105.578 91.8885 105.917 91.8603C106.006 91.8528 106.097 91.8453 106.185 91.8281C106.162 91.7856 106.144 91.7393 106.126 91.6939C106.088 91.5985 106.052 91.5074 105.986 91.4654C105.373 91.0799 105.295 90.7387 105.793 90.3682C106.117 90.1275 106.455 89.9052 106.788 89.6861C106.935 89.5892 107.081 89.493 107.225 89.3961ZM77.2232 117.873L76.0719 117.405C76.0582 117.439 76.0442 117.473 76.0303 117.506L76.0288 117.509L76.0286 117.51C75.9052 117.804 75.7966 118.063 76.0023 118.442C76.47 119.304 77.2493 119.772 78.026 120.238L78.0262 120.239L78.0262 120.239C78.226 120.359 78.4256 120.478 78.6197 120.605C79.0092 120.859 79.6926 120.567 80.1012 120.137C80.2686 119.969 80.4567 119.824 80.661 119.704C81.185 119.423 81.3923 118.777 81.1309 118.239C80.9732 117.843 80.901 117.555 81.1911 117.21C81.4677 116.925 81.4663 116.469 81.188 116.182C81.1632 116.15 81.1376 116.119 81.112 116.087C80.9032 115.828 80.6883 115.561 80.8163 115.15C80.7954 114.955 80.6776 114.783 80.5033 114.694C80.4147 114.66 80.2917 114.686 80.1766 114.71C80.055 114.736 79.9422 114.76 79.8878 114.709C79.8197 114.647 79.8136 114.524 79.8072 114.396C79.8013 114.28 79.7952 114.159 79.7409 114.077C79.3619 113.503 78.7388 113.489 78.1794 113.616C78.0295 113.65 77.8956 113.736 77.7585 113.824C77.5517 113.956 77.3374 114.093 77.0493 114.065C77.0229 114.063 76.9858 114.222 76.9422 114.41L76.9421 114.411L76.9421 114.411C76.9073 114.561 76.8684 114.729 76.8273 114.847C76.7591 114.975 76.6745 115.093 76.5755 115.198L77.2457 116.192C76.8902 115.983 76.7114 115.878 76.5647 115.791L75.8618 116.265C75.9824 116.379 76.0997 116.489 76.214 116.595L76.2141 116.595C76.5226 116.883 76.8099 117.152 77.086 117.432C77.1368 117.483 77.1542 117.567 77.1765 117.677C77.1886 117.735 77.2022 117.801 77.2232 117.873ZM100.072 69.3857L101.271 69.0059C101.17 68.504 100.964 68.0952 100.383 67.9776C100.479 67.5787 100.756 67.5547 101.043 67.5297C101.24 67.5125 101.442 67.495 101.594 67.3549L101.275 66.6234C101.32 66.3374 101.527 66.3082 101.745 66.2775C101.961 66.2471 102.188 66.2151 102.28 65.9321C102.396 65.5807 102.644 65.6608 102.909 65.7465C103.083 65.8029 103.265 65.8618 103.421 65.801C103.685 65.7444 103.959 65.7692 104.209 65.8721C104.557 65.9785 104.866 66.1707 105.176 66.3639C105.606 66.6324 106.04 66.9027 106.587 66.9471C106.737 66.9594 106.873 67.1655 107.028 67.4008C107.105 67.5184 107.187 67.6432 107.279 67.7548C106.815 67.8176 106.771 68.14 106.726 68.464C106.683 68.7718 106.64 69.081 106.238 69.1706C106.244 69.3098 106.302 69.4493 106.361 69.5917C106.497 69.9221 106.64 70.2683 106.161 70.6638L105.358 70.2763L105.418 70.6737L105.481 71.0862C105.15 71.4448 104.745 71.2514 104.458 71.1148L104.418 71.096C103.487 70.6503 102.459 70.4494 101.431 70.512C100.78 70.5463 100.221 70.2641 100.072 69.3857ZM71.6815 43.2878L72.3995 41.0434C72.2895 40.9406 72.1791 40.8178 72.0646 40.6906C71.7974 40.3934 71.5078 40.0715 71.148 39.9196C70.2368 39.5137 69.2691 39.2516 68.2794 39.1428C67.1381 39.0462 65.9335 39.1444 65.5947 40.6433C65.573 40.7394 65.4891 40.821 65.3944 40.9131C65.3452 40.961 65.293 41.0118 65.2451 41.0689C65.3398 41.1634 65.4244 41.2657 65.5051 41.3632C65.6697 41.5623 65.8176 41.7412 66.0002 41.7915C66.1231 41.8254 66.2466 41.8571 66.3698 41.8886C67.1035 42.0765 67.8267 42.2616 68.3414 42.9121C68.9057 42.9632 69.3671 43.2441 69.8249 43.523C70.0995 43.6902 70.3729 43.8567 70.6665 43.9724L71.6815 43.2878Z" fill="#F5D3AB"/>
</svg>
